<svg width="147" height="101" viewBox="0 0 147 101" fill="none" xmlns="http://www.w3.org/2000/svg">
<path d="M146.628 50.0069C146.374 48.3954 144.823 47.1718 143.047 47.1718H53.5331C52.6527 47.1718 52.3394 46.4854 52.2648 46.2765C52.1901 46.0676 51.9962 45.3365 52.6826 44.7844L99.521 6.71974C100.909 5.60063 101.326 3.69069 100.521 2.27315C100.013 1.37786 99.1778 0.781005 98.1781 0.601947C97.1932 0.42289 96.1935 0.676554 95.4176 1.30326L48.7582 39.2187C48.0718 39.7857 47.3854 39.4425 47.2064 39.3231C47.0124 39.2037 46.4155 38.7561 46.6095 37.8757L52.4289 12.7032C52.8318 10.9724 51.9962 9.19671 50.4891 8.58493C49.5341 8.19697 48.5195 8.22681 47.5794 8.7043C46.6991 9.16686 46.0724 9.98754 45.8336 10.9574L39.119 40.0244C38.9399 40.8003 38.2983 40.9943 38.0894 41.0391C37.8805 41.0839 37.2239 41.1734 36.7464 40.5467L27.0624 27.953C25.9732 26.5504 24.0781 26.0729 22.6457 26.8488C21.7355 27.3412 21.1237 28.1619 20.9148 29.1467C20.7059 30.1315 20.9297 31.1462 21.5415 31.9221L31.6135 45.0082C31.9268 45.426 31.9865 45.9482 31.7478 46.4257C31.5239 46.8883 31.0614 47.1718 30.5391 47.1718H4.12815C2.3525 47.1718 0.800668 48.3804 0.547004 49.992C0.382868 51.0066 0.651455 51.9914 1.308 52.7673C1.94962 53.5283 2.90459 53.976 3.90433 53.976H26.8088C27.6891 53.976 28.0025 54.6624 28.0771 54.8713C28.1517 55.0802 28.3457 55.8113 27.6593 56.3634L12.6781 68.5393C11.3352 69.6286 10.9025 71.4938 11.6635 72.8815C12.141 73.7768 13.0064 74.4035 14.036 74.5974C15.0507 74.7914 16.0653 74.5527 16.8114 73.9409L31.5985 61.9291C32.2849 61.3621 32.9713 61.7202 33.1504 61.8247C33.3444 61.944 33.9412 62.4066 33.7472 63.2721L27.9279 88.4744C27.5548 90.1008 28.2711 91.787 29.6588 92.4733C30.5839 92.9359 31.6732 92.9359 32.643 92.4733C33.598 92.0257 34.2844 91.1901 34.5231 90.1903L41.2378 61.1383C41.4169 60.3624 42.0585 60.1684 42.2674 60.1236C42.4614 60.0789 43.1328 59.9893 43.6103 60.616L73.3338 99.2626C73.9158 100.024 74.826 100.486 75.8257 100.546C75.9003 100.546 75.9749 100.546 76.0346 100.546C76.9747 100.546 77.87 100.173 78.5116 99.5013C79.6456 98.3225 79.6755 96.3678 78.6011 94.9503L48.7433 56.1247C48.4299 55.7069 48.3703 55.1846 48.609 54.7071C48.8328 54.2446 49.2954 53.9611 49.8176 53.9611H143.271C144.27 53.9611 145.21 53.5283 145.867 52.7524C146.524 51.9765 146.792 50.9917 146.628 49.977V50.0069Z" fill="#4615C8"/>
</svg>
