<svg width="32" height="32" viewBox="0 0 32 32" fill="none" xmlns="http://www.w3.org/2000/svg">
<path fill-rule="evenodd" clip-rule="evenodd" d="M21.6701 17.1155V13.4265C21.6701 13.1848 21.5346 12.9616 21.3175 12.8424L9.18408 6.22302V5.54665C9.18408 5.28987 9.47074 5.12875 9.7018 5.25462L22.4589 12.2164C22.6778 12.3355 22.8116 12.5588 22.8116 12.8004V17.1658C22.8116 17.4226 22.5249 17.5837 22.2938 17.4578L21.6684 17.1171L21.6701 17.1155ZM18.4509 18.9146L17.3078 18.2903V25.7237L17.9332 26.0644C18.1642 26.1902 18.4509 26.0291 18.4509 25.7723V18.913V18.9146Z" fill="#F8F5F2"/>
<path fill-rule="evenodd" clip-rule="evenodd" d="M23.8569 15.9062V12.2172C23.8569 11.9755 23.7214 11.7523 23.5042 11.6331L11.3726 5.01377V4.33572C11.3726 4.07893 11.6592 3.91781 11.8903 4.04368L24.6474 11.0054C24.8663 11.1246 25 11.3478 25 11.5895V15.9549C25 16.2117 24.7134 16.3728 24.4823 16.2469L23.8569 15.9062ZM20.4431 19.9745L19.4945 19.4609V25.4425L20.1026 25.7715C20.3336 25.8974 20.6203 25.7346 20.6203 25.4795V20.2665C20.6203 20.1457 20.5525 20.0332 20.4431 19.9745Z" fill="#F8F5F2"/>
<path d="M20.6292 13.9882V18.3536C20.6292 18.6104 20.3426 18.7715 20.1115 18.6456L16.5257 16.6887C16.4093 16.6249 16.2668 16.7055 16.2668 16.8347V26.9618C16.2668 27.2186 15.9802 27.3797 15.7491 27.2538L11.7185 25.0535C11.4996 24.9344 11.3659 24.7111 11.3659 24.4695V14.0705C11.3659 13.9496 11.2981 13.8372 11.1887 13.7784L7.35267 11.6855C7.13377 11.5664 7 11.3432 7 11.1015V6.73611C7 6.47932 7.28666 6.3182 7.51772 6.44408L20.2748 13.4058C20.4937 13.525 20.6275 13.7482 20.6275 13.9899L20.6292 13.9882Z" fill="#F8F5F2"/>
</svg>
