<svg xmlns="http://www.w3.org/2000/svg" version="1.1" xmlns:xlink="http://www.w3.org/1999/xlink" xmlns:svgjs="http://svgjs.dev/svgjs" width="20" height="24"><svg xmlns="http://www.w3.org/2000/svg" width="20" height="24" viewBox="0 0 20 24" fill="none">
  <path d="M0 7.48126V16.5234C0 18.0203 0.816547 19.4011 2.13631 20.1449L8.22244 23.5851C9.2004 24.1383 10.4015 24.1383 11.3794 23.5851L17.4656 20.1449C18.7853 19.3964 19.6019 18.0157 19.6019 16.5234V7.48126C19.6019 5.98431 18.7853 4.60358 17.4656 3.85976L11.3794 0.414915C10.4015 -0.138305 9.2004 -0.138305 8.22244 0.414915L2.13631 3.85511C0.816547 4.60358 0 5.98431 0 7.48126Z" fill="#DC2626" style="fill:#DC2626;fill:color(display-p3 0.8627 0.1490 0.1490);fill-opacity:1;"></path>
  <path d="M17.2331 11.7629L14.9971 11.0191C14.1758 10.7448 13.5634 10.066 13.3925 9.23388L12.4478 4.66865C12.424 4.55243 12.3196 4.46875 12.1961 4.46875C12.0727 4.46875 11.9683 4.55243 11.9445 4.66865L10.9998 9.23388C10.8289 10.066 10.2165 10.7448 9.3952 11.0191L7.15919 11.7629C7.05474 11.7954 6.98828 11.8931 6.98828 12C6.98828 12.1069 7.05949 12.1999 7.15919 12.2371L9.3952 12.9809C10.2165 13.2552 10.8289 13.9339 10.9998 14.7661L11.9445 19.3313C11.9683 19.4475 12.0727 19.5312 12.1961 19.5312C12.3196 19.5312 12.424 19.4475 12.4478 19.3313L13.3925 14.7661C13.5634 13.9339 14.1758 13.2552 14.9971 12.9809L17.2331 12.2371C17.3375 12.2045 17.404 12.1069 17.404 12C17.404 11.8931 17.3328 11.8001 17.2331 11.7629Z" fill="#FFFDF7" style="fill:#FFFDF7;fill:color(display-p3 1.0000 0.9922 0.9686);fill-opacity:1;"></path>
  <path d="M5.20332 7.5744L5.99138 7.83474C6.28097 7.93237 6.49935 8.16946 6.55632 8.46699L6.88863 10.0802C6.89813 10.122 6.93611 10.1499 6.97883 10.1499C7.02156 10.1499 7.05954 10.122 7.06903 10.0802L7.40135 8.46699C7.46306 8.17411 7.6767 7.93237 7.97103 7.83474L8.7591 7.5744C8.79708 7.56045 8.82081 7.52791 8.82081 7.49072C8.82081 7.45353 8.79708 7.42099 8.7591 7.40704L7.97103 7.1467C7.68144 7.04907 7.46306 6.81198 7.40135 6.51445L7.06903 4.90128C7.05954 4.85944 7.02156 4.83154 6.97883 4.83154C6.93611 4.83154 6.89813 4.85944 6.88863 4.90128L6.55632 6.51445C6.4946 6.80733 6.28097 7.04907 5.99138 7.1467L5.20332 7.40704C5.16534 7.42099 5.1416 7.45353 5.1416 7.49072C5.1416 7.52791 5.16534 7.56045 5.20332 7.5744Z" fill="#FFFDF7" style="fill:#FFFDF7;fill:color(display-p3 1.0000 0.9922 0.9686);fill-opacity:1;"></path>
  <path d="M7.0453 15.4959L5.98664 15.1472C5.59736 15.017 5.30777 14.6963 5.22706 14.3011L4.78081 12.1394C4.77131 12.0836 4.71909 12.0464 4.66213 12.0464C4.60516 12.0464 4.55294 12.0836 4.54344 12.1394L4.09719 14.3011C4.01648 14.6963 3.72689 15.017 3.33761 15.1472L2.27895 15.4959C2.23147 15.5098 2.19824 15.5563 2.19824 15.6075C2.19824 15.6586 2.23147 15.7051 2.27895 15.719L3.33761 16.0677C3.72689 16.1979 4.01648 16.5186 4.09719 16.9138L4.54344 19.0755C4.55294 19.1313 4.60516 19.1685 4.66213 19.1685C4.71909 19.1685 4.76657 19.1267 4.78081 19.0755L5.22706 16.9138C5.30777 16.5186 5.59736 16.1979 5.98664 16.0677L7.0453 15.719C7.09278 15.7051 7.12601 15.6586 7.12601 15.6075C7.12601 15.5563 7.09278 15.5098 7.0453 15.4959Z" fill="#FFFDF7" style="fill:#FFFDF7;fill:color(display-p3 1.0000 0.9922 0.9686);fill-opacity:1;"></path>
</svg><style>@media (prefers-color-scheme: light) { :root { filter: none; } }
@media (prefers-color-scheme: dark) { :root { filter: none; } }
</style></svg>